/* XPM */
static char *_88cf56caf8c4db7dd319b3c777016edhtVWrzpcvlHuddG8[] = {
/* columns rows colors chars-per-pixel */
"64 64 136 2 ",
"   c None",
".  c #262626",
"X  c #272827",
"o  c #272C2B",
"O  c #2C2C2C",
"+  c #25302F",
"@  c #2C302F",
"#  c #263433",
"$  c #2C3332",
"%  c #273837",
"&  c #2D3837",
"*  c #263C3B",
"=  c #2D3B3A",
"-  c #333333",
";  c #333A3A",
":  c gray22",
">  c #29403F",
",  c #1F5956",
"<  c #1F5F5B",
"1  c #244543",
"2  c #2C4443",
"3  c #234947",
"4  c #2A4847",
"5  c #244C4A",
"6  c #2B4C4B",
"7  c #324343",
"8  c #304847",
"9  c #314B4A",
"0  c #24504E",
"q  c #2A514F",
"w  c #255452",
"e  c #2B5552",
"r  c #245956",
"t  c #2A5856",
"y  c #245D5A",
"u  c #2A5D5A",
"i  c #305150",
"p  c #1F625E",
"a  c #22615E",
"s  c #2A615E",
"d  c #1F6561",
"f  c #1E6B67",
"g  c #1D6E6A",
"h  c #1C736F",
"j  c #1E7672",
"k  c #1D7975",
"l  c #1E7E79",
"z  c #246663",
"x  c #296663",
"c  c #256A66",
"v  c #236E6A",
"b  c #286C69",
"n  c #21716D",
"m  c #227571",
"M  c #217B76",
"N  c #217E79",
"B  c #1C827D",
"V  c #21837E",
"C  c #1D8681",
"Z  c #1C8B85",
"A  c #198F89",
"S  c #17948E",
"D  c #1B948E",
"F  c #1B9791",
"G  c #179B95",
"H  c #199B95",
"J  c #189F98",
"K  c #189E98",
"L  c #208580",
"P  c #218681",
"I  c #208681",
"U  c #208984",
"Y  c #17A19A",
"T  c #17A39D",
"R  c #17A59E",
"E  c #16A39C",
"W  c #1AA099",
"Q  c #18A49D",
"!  c #18A59E",
"~  c #18A69F",
"^  c #18A39C",
"/  c #16A7A0",
"(  c #17A7A0",
")  c #15A7A0",
"_  c #18A7A0",
"`  c #16A8A1",
"'  c #17A8A1",
"]  c #15A9A2",
"[  c #15AAA3",
"{  c #15ACA4",
"}  c #17ACA4",
"|  c #16ADA5",
" . c #14ADA6",
".. c #15ADA6",
"X. c #16ADA6",
"o. c #14AEA6",
"O. c #15AFA7",
"+. c #16AFA7",
"@. c #15ADA6",
"#. c #14AFA8",
"$. c #15AFA8",
"%. c #16AFA8",
"&. c #13B0A8",
"*. c #13B3AB",
"=. c #14B0A8",
"-. c #15B0A9",
";. c #15B1A9",
":. c #16B1A9",
">. c #15B2AA",
",. c #15B2AB",
"<. c #14B3AC",
"1. c #13B5AD",
"2. c #13B4AC",
"3. c #12B8AF",
"4. c #13B8AF",
"5. c #13BBB3",
"6. c #14B8B0",
"7. c #11BCB3",
"8. c #12BCB4",
"9. c #12BDB4",
"0. c #13BDB4",
"q. c #12BDB5",
"w. c #11BEB5",
"e. c #12BEB6",
"r. c #12BBB2",
"t. c #11C0B7",
"y. c #11C1B9",
"u. c #11C2B9",
"i. c #11C3BA",
"p. c #10C4BB",
"a. c #11C4BB",
"s. c #10C5BC",
"d. c #10C5BD",
"f. c #10C6BD",
"g. c #10C7BE",
"h. c #10C7BE",
/* pixels */
"                                                    - @ - @ - - - - - - - -                                                     ",
"                                            O - - - @ - - t D %. .D e - - - - : - -                                             ",
"                                        @ O - - - - - - C d.g.g.d.g.d.V - - - - - : : -                                         ",
"                                  O @ O - @ - O @ @ @ b f.g.g.g.d.g.d.d.b : - - - - - - - : -                                   ",
"                                - O O - - O - O - - - 6.f.g.g.g.g.g.g.g.:.: - - - - - : : - - :                                 ",
"                            O O O O - O O - O - - O e d.g.g.g.g.g.g.g.g.d.6 - - : - - : - - : : : :                             ",
"                          O O O O - O O - O - @ O - t d.g.g.g.g.g.g.g.g.g.t - - - - - : : - - : - : :                           ",
"                      O @ @ @ O O O - - O - q $ - O 6 d.g.g.g.g.g.g.g.g.a.8 - - ; b M U i - - : : - : - :                       ",
"                    O O O @ O O O O O $ z ` F & - @ - #.g.g.g.g.g.g.g.g.~ : - - 8 t.d.D 7 - : : - : : : : -                     ",
"                  O O O O O O @ - @ t ] A 4 - O O - @ u d.g.g.d.g.g.g.a.t - - - - x 1.F ~ u - - : : - - : : :                   ",
"                O O O O O @ O O & A K 6 - O - - - - O - b q.d.d.g.g.5.x - : - - - : U 9 e ~ U ; - : - : : : : -                 ",
"              O O O O O O O O 6 [ m $ O O - O O - O - O - 7 m A D n > - - - - - - - - - - : V } 9 : : : - : : : :               ",
"              O O X O O 4 $ y  .q O @ O O O - O O - - O - - O - - - - - - - - : - - - - - : - u +.s : - - : : - :               ",
"            O O O O O O _ v [ * O - O - - - O - - O O - O - - - - - - - - - - - - - : - - - : - 6 } s : : : : : : :             ",
"          O O X O O O & t.1.m & O O - O O O - O O - - O - - O - - - - - - - - - - - - - - - : : - 9 } u : - : : : : :           ",
"          X O O X O O w f.#.B & O O O O - O O O - O - - O - - - - - @ - - - - - - : - - : - - - : - 9 :.8 : - : : - :           ",
"        O O . O O O O # 5 O O O @ O O O O O - O - O - O - - - O - O - - - - - - - : - - - - : - - - : 9 ; : : : : : : :         ",
"      . . O . O O O X O O O O O - O - O - O O - O - O - - O - - - - - - - - - - - - - - : - - - - : - : - : - : - : : : :       ",
"      O X O % 1 * O O o O O O O O O O O O O O - - O O - - O - O O - - - - - - - - - - - - - - : : - - : : - : 9 e 7 : : -       ",
"    . O 1 K i.f.d. .p O O O O O O O - O - - O O O - O - O - - - - - @ - - - - - - : : - - - - - - - : - : b <.d.d.i.H i :       ",
"    X w w.g.g.g.g.g.d.l O O O O O O O O O - O O - O - O - - O - O - O - @ - - - - - - - - - - - - : - : P d.g.g.g.g.g.0.t :     ",
"    # 1.g.g.g.g.g.g.g.d.w O O O O O O - O O - O O O O - O O - - - - - - - - - - - - : - : - - : - - - s d.g.g.g.g.g.g.g.:.:     ",
"  O d f.g.g.g.g.g.g.g.d.S O O O O - O O O - O O O - - O - O - O - O - - - - - - - - - - - - - : - - - W g.g.g.g.g.g.g.g.g.x :   ",
"  . B g.g.g.g.g.g.g.g.d.<.O O O O O O O O O O - - O O - O - O - - - - O - - - - - - - - - - - - - : : 0.g.g.g.g.g.g.g.g.g.P :   ",
"  . B f.g.g.g.g.g.g.g.g.<.O O O O O O O - O O O O - O O - - O - O - - - - - - - - - - - - - - - - - ; 0.g.g.g.g.g.g.g.g.g.P :   ",
"  O f g.g.g.g.g.g.g.g.g.H . O O O O O O O O O - - O O - O O - O O - @ - @ - - O - - - - - - - - - - - ~ g.g.g.g.g.g.g.g.g.b :   ",
"X X % 7.d.g.g.g.g.g.g.d.a O O . O O O O O O O @ O $ = - @ - - O - - - - - ; - - @ - - - - - - - - - - b d.g.g.g.g.g.g.g.1.7 :   ",
"X X X p d.g.g.d.g.g.g.A O O O O O O O O O - O O M #.X.T 0 - O - O - O e ' } %.n - - - - - - - : - - - ; F g.g.g.g.g.g.a.x - : : ",
"X X X X y #.d.d.g.e.k @ X O O O O O O O O - O v D & O q ` n @ - @ @ m _ 6 $ = H c - - - - - : - : - - : ; P e.d.g.d.} u : - : - ",
"X X X X X o 5 a w # O X O O O O O O O O O O @ [ > O O - = K m @ - N H - - - @ 6 W - - - - - - - - - - - - : 7 u x e : : : : - : ",
"X . . X X X O . X X O O X O O X O O O O O O ; X.@ O O O O & T c v K - @ @ - - -  .; - - - - - - - : - - - - : - - - - - : : : - ",
". X X . X X . O X O X O O X O O O O O O O O > K O - - O O - = ,.%.; - - O - - @ ~ = - - - - - - - - - - - - - - - : : - - - : : ",
". . . . X . + . . O . O O . . O O O O O O O > / O O - @ @ O t [ X.0 @ @ - - - O _ ; - $ - - - - - - - - - - - - - ; - : - : - : ",
". . . . X + T o O . O . O O O O X O O O O O $ #.@ O O O O 0 %.8 6 %.6 @ @ - - - X.- - - O - - - - - : - - - - : i 6.7 - : - - : ",
". . O . . O #.o . O . O . O . O O O O O O O O H e O O @ e %.6 @ @ e X.q @ @ @ u F - - - - - - - - - - - : - - ; ' g.V - : - - : ",
". . . . . X ) * . . O . O . O O O O O X O O O q [ u 5 l [ 4 O - @ @ 6 %.M 6 s X.6 O - - - - - - - - - - - - - M F X.%.; - : - - ",
". . . . . . A 0 . O . O . O X . X O O X O O O O 5 Z H m ; O O O - O O ; M H Z 6 - O - O O - - - - - - - - - - ; x Z t ; - - : - ",
". . . . . . g h O . O . O . O O O O O O O O O O O O O @ O O - O O - @ O @ - - @ - O - - - - - - - - - - - - - - N b - - - : :   ",
"  . . . . . 3 H . O . . . O O O O . O O O O O O O O O @ - O O - O - O - - O O - - - O - - - O - - - - - - - : - K 6 - : - - -   ",
"  . . . . . o #.# . . O O X . . O O O X O O O O O O O O O O O O O O - O O - O - O - - - - O - - - - - - - - - ;  .- - - - - :   ",
"  . . . X . . Z < . . o O . O O . O . O O O O O O O O O O O - O - - O - O - O - - O - - - - O - - - - - - - - c P - : - - - -   ",
"  . . X . . . 5 G . . . . O . O . O O O O O . O O O O O - O O O O O O O O - - O O - - O - O - - - @ - - - - - ~ e - - - - - -   ",
"    . . . . . . T 1 0 . X O . X O O . . O . O O O O O O O O O O O O O - - O O - O - - O - - - O @ - - - - - e ^ - - - - - -     ",
"    . . . . . . p S #.o O . O . . O O O O O O O O O O O O O O - O - O O O - O O O - O - - O - - - @ - - - - H y - - - : : -     ",
"    . . . . . 0 Y e.r.o X . X O . O O O . . O O O O O O O O O O O - O - O O O - - O - O - O - - - - - - - t ^ - - - - - -       ",
"      . . . . . 0 ` r.o O . O X O X . . O O O O O O O O O O O O O O O O O - - O O - O - O - @ - @ - O - - W e - - - - - -       ",
"      X . . . . . O 5 . . . . X . O . O O . . O O O O O O O O O O - O - O O - - - O O - - @ - O - @ - - - 4 - - - - - -         ",
"        . . . . . . . . O . # d B B a $ . O O O O O O O O O O O O O O O - O O O O - - O - x C C x ; - O @ - - - - - - -         ",
"          . . . . . X X X < 3.f.g.g.g.<.w . O . O O O O O O O O O O O O - O - O O @ @ y 1.g.g.g.d.1.u - - O - - - - -           ",
"          . . . . . X . , e.g.g.g.g.g.g.e.3 . O O O O . O O O O O - O O O O O O - @ q i.g.g.g.g.d.d.i.w - - - - - O -           ",
"            . . . . . X  .g.g.g.g.g.g.g.g.K o O O O O O O O O O O O - O O O O - O @ _ d.g.g.g.g.g.g.d.' - @ - - - -             ",
"              . . . . 1 f.g.g.g.g.g.g.g.g.e.% o . . O O O O O O O O O O O O O @ @ 7 d.g.g.g.g.g.g.g.d.d.2 - @ @ -               ",
"              . . . . , f.g.g.g.g.g.g.g.g.g.1 O O O O O O O . O O O O O O @ O O O e d.d.g.g.g.g.g.g.g.g.r - - - -               ",
"                . . . 0 f.g.g.g.g.g.g.g.g.d.> . O . . O . O O O O O O O O O @ @ O 6 d.d.g.g.g.g.g.g.g.g.q @ @ -                 ",
"                  . . + 7.g.g.g.g.g.g.g.g.%.o O O . O O O O O O O O O O O @ @ O O & 6.g.g.g.g.g.g.g.g.6.& @ -                   ",
"                    . . j g.g.g.g.g.g.g.f.d . O . O O . O . O O O O O t v = @ O O O n g.g.g.g.g.g.g.d.m @ -                     ",
"                      . X A f.g.f.f.g.y.B X O . o Z k w > % $ O O @ & w ] p.G @ O O @ P d.d.d.d.g.d.Z $ O                       ",
"                          X < K 1.1.G , X X . o X 1 g Z T  .[  .[ X.[ T J y.z o O O O - y J 1.1.J y -                           ",
"                            . X O X . O X X X X o . X . O X o @ @ o O O K r o O O - O O O @ @ - O @                             ",
"                                . . . . X O X X . o O X X O . O o O O O @ O O O O O O @ O @ O O                                 ",
"                                  . . . . O . O O O . O . O O O . O O O o O O O O @ O O @ O O                                   ",
"                                        . . . . . . O . . O O . O O . O O O O O O O O O                                         ",
"                                            O . . . . . O . . O O . O . O O . O O O                                             ",
"                                                    O . . O . . O O O . O O                                                     "
};
