/* XPM */
static char *b41f76faefdc4ad79373610c913678daD5Ek4n4fXhi7CobC[] = {
/* columns rows colors chars-per-pixel */
"32 32 237 2 ",
"   c None",
".  c #252525",
"X  c gray15",
"o  c #272727",
"O  c #272827",
"+  c #252828",
"@  c #262828",
"#  c #272828",
"$  c #272929",
"%  c #262F2F",
"&  c #282828",
"*  c gray16",
"=  c #282A2A",
"-  c #292A2A",
";  c #2A2A2A",
":  c gray17",
">  c #2A2C2C",
",  c #2B2C2C",
"<  c #2A2D2D",
"1  c #2B2D2D",
"2  c #292E2D",
"3  c #2C2C2C",
"4  c #2D2D2D",
"5  c #2D2E2E",
"6  c #2D2F2F",
"7  c gray18",
"8  c #2F2F2F",
"9  c #2F302F",
"0  c #253130",
"q  c #263030",
"w  c #273635",
"e  c #2D3030",
"r  c #2E3131",
"t  c #2F3131",
"y  c #2F3232",
"u  c #2A3434",
"i  c #2A3635",
"p  c #2A3737",
"a  c #2D3434",
"s  c #2C3534",
"d  c #2C3636",
"f  c #2D3636",
"g  c #2C3736",
"h  c #2E3736",
"j  c #2F3737",
"k  c #293837",
"l  c #2D3837",
"z  c #273938",
"x  c #263A39",
"c  c #233D3C",
"v  c #253F3E",
"b  c #263F3E",
"n  c #283838",
"m  c #283938",
"M  c #2D3838",
"N  c #2E3938",
"B  c #2F3938",
"V  c #2F3B3A",
"C  c #2F3B3B",
"Z  c #2A3F3E",
"A  c gray19",
"S  c #313131",
"D  c #303231",
"F  c #313232",
"G  c #323232",
"H  c gray20",
"J  c #333434",
"K  c #333535",
"L  c #303737",
"P  c #333737",
"I  c #343434",
"U  c #353535",
"Y  c gray21",
"T  c #363737",
"R  c #373737",
"E  c #343938",
"W  c #343A3A",
"Q  c #353A3A",
"!  c #313D3C",
"~  c #333D3C",
"^  c #323E3D",
"/  c #323F3E",
"(  c #343C3C",
")  c gray22",
"_  c #2C403F",
"`  c #32403F",
"'  c #1F5F5C",
"]  c #214744",
"[  c #284240",
"{  c #2C4140",
"}  c #2D4140",
"|  c #2C4241",
" . c #2C4342",
".. c #294543",
"X. c #2F4544",
"o. c #224947",
"O. c #234947",
"+. c #244947",
"@. c #284847",
"#. c #234D4B",
"$. c #274C4A",
"%. c #274F4D",
"&. c #2A4A48",
"*. c #2F4948",
"=. c #294C4B",
"-. c #294D4B",
";. c #2A4E4C",
":. c #2D4F4E",
">. c #334140",
",. c #304241",
"<. c #304342",
"1. c #324443",
"2. c #25504E",
"3. c #2D504E",
"4. c #215250",
"5. c #275351",
"6. c #215553",
"7. c #225553",
"8. c #245653",
"9. c #245755",
"0. c #2A5250",
"q. c #295452",
"w. c #2A5755",
"e. c #2E5654",
"r. c #215855",
"t. c #205856",
"y. c #265855",
"u. c #245957",
"i. c #295856",
"p. c #2B5A57",
"a. c #245B58",
"s. c #275B58",
"d. c #245C59",
"f. c #275C59",
"g. c #265D5A",
"h. c #2B5B58",
"j. c #2A5C59",
"k. c #285C5A",
"l. c #295D5B",
"z. c #2A5C5A",
"x. c #2A5E5C",
"c. c #21615E",
"v. c #23625F",
"b. c #24615E",
"n. c #2A605D",
"m. c #2C615F",
"M. c #1E6663",
"N. c #1F6D69",
"B. c #1D6F6B",
"V. c #1D716C",
"C. c #1D716D",
"Z. c #1E706C",
"A. c #1E716D",
"S. c #1C7470",
"D. c #1E7571",
"F. c #1D7773",
"G. c #1B7873",
"H. c #1F7975",
"J. c #1D7D79",
"K. c #1F7C78",
"L. c #1E7E79",
"P. c #1F7E79",
"I. c #1E7F7A",
"U. c #1F7F7A",
"Y. c #276360",
"T. c #226562",
"R. c #236663",
"E. c #256663",
"W. c #276662",
"Q. c #256764",
"!. c #2A6663",
"~. c #206865",
"^. c #206B67",
"/. c #276865",
"(. c #246966",
"). c #266966",
"_. c #226E6A",
"`. c #20716D",
"'. c #23706C",
"]. c #23736F",
"[. c #25716D",
"{. c #24736F",
"}. c #237470",
"|. c #237773",
" X c #247571",
".X c #207975",
"XX c #207C78",
"oX c #217C78",
"OX c #237C78",
"+X c #217F7B",
"@X c #237E7A",
"#X c #1B827D",
"$X c #1F817C",
"%X c #1B847F",
"&X c #22817D",
"*X c #22827D",
"=X c #1F8984",
"-X c #1E8B86",
";X c #198F89",
":X c #1C8D88",
">X c #17968F",
",X c #1D928C",
"<X c #169D96",
"1X c #169F98",
"2X c #169F99",
"3X c #1B9E98",
"4X c #218782",
"5X c #17A29B",
"6X c #15A39C",
"7X c #17A39C",
"8X c #17A69F",
"9X c #1AA09A",
"0X c #18A59F",
"qX c #15A9A2",
"wX c #17AAA3",
"eX c #15AEA6",
"rX c #15AFA7",
"tX c #16AEA6",
"yX c #13B0A8",
"uX c #13B3AB",
"iX c #14B4AC",
"pX c #14B5AD",
"aX c #14B6AE",
"sX c #12B9B1",
"dX c #12BBB3",
"fX c #13BBB3",
"gX c #11BEB6",
"hX c #12BEB6",
"jX c #12BFB6",
"kX c #11C0B7",
"lX c #11C2B9",
"zX c #11C3BA",
"xX c #10C3BB",
"cX c #11C4BC",
"vX c #10C5BC",
"bX c #10C6BD",
"nX c #10C7BE",
/* pixels */
"                        A A L ).).^ A U                         ",
"                  A 4 A A | aXnXnXaX<.U I U U                   ",
"              4 4 A A A A *XnXnXnXnX+XA U U U Y U               ",
"            4 4 4 4 9 L A :XnXnXnXnX-XU 1.w.( Y U U             ",
"          ; 4 4 4 u..X=.A f.bXbXnXbXh.U /.wXx.U U R U           ",
"        ; 4 4 s H.q.8 8 A A !.wXwXW.H U H :.w.+X( U ) U         ",
"      ; ; 4 T.J.s e 4 A A A A A A H H H H U U ^ *X>.R R )       ",
"    ; ; ; k dXu.4 A 4 A 4 A H A H A H H U A U U Q *XQ R ) )     ",
"    ; ; ; 1 i 3 4 4 4 A 8 A A A A A H H U A I I U Q U Y ) )     ",
"  ; #.#XH.n 3 3 4 4 4 4 8 A A A H H A H U I I I U U 1.+X4Xe.)   ",
"  ' xXnXbXuXi ; 4 4 4 A 8 8 A A A U U H A U U I U ` aXnXbXbXm.  ",
"  <XnXnXbXbX^.4 4 4 4 4 8 8 A A A A A H A U U A K [.bXnXbXbX3X  ",
"X 2XbXbXnXnX^.4 4 4 4 4 4 A e A A A A U U H U U U [.nXnXnXnX9X) ",
"X ' bXbXbXdXn ; 3 4 4 4 v._.N A A ! [.Y.A H A U K <.fXnXnXbX/.R ",
"X ; r.;X%Xv ; 4 3 3 4 a.;.s J.|  .+Xl q.l.H A I J I *.4X,Xx.Y Y ",
"o o o ; ; ; ; ; ; 4 3 `.4 e y J.+XA A A  XA U U U A I U U U Y Y ",
"o # # O.o ; ; ; : 4 4 C.4 4 i *XJ.s A A [.A I I A U I I l.R U U ",
"X # # C.; ; ; ; : : : %.Y.@.J.s l &X&./.q.H A U A U U  .tX/.U U ",
"X o o C.o ; # ; ; : : 4 $.d.y 4 4 y f.3.A H I A U I I U |.^ J J ",
"X X o B.# ; ; ; ; : : 4 : 4 4 4 4 9 9 9 A A A U A U A Q  XJ I I ",
"  X X O.4.# ; ; ; ; : : 3 4 4 4 9 4 8 8 A A A A H A H l.3.U I   ",
"  X X O S.r.; # ; ; : : 3 3 4 4 y 4 8 8 A A A A A H A +XA U A   ",
"  X X q >XS.o ; ; ; ; : : 3 3 4 4 4 4 A 8 A A A A H k.e.I U U   ",
"    X X # q o z 6.z ; ; : : 3 3 4 4 4 8 8 8 _ k.<.A L A A A     ",
"    X X X X M.zXnXzXd.; ; ; 3 3 4 4 4 4 4 T.zXnXzX/.A A U A     ",
"      X X % zXbXnXnXjX% ; : : 3 4 4 4 4 s jXnXnXbXkXL A A       ",
"        X c bXbXnXnXnXw ; ; : : 1 3 4 4 _ bXnXnXnXnX| A         ",
"          o uXbXnXnXqX# ; ; ; : : i [ 4 y tXnXbXnXrXy           ",
"            ] 6XjX2Xv ; O.C.B._.N.D.uXr.4 ..5XjX0X;.            ",
"              X # X o ; ; ; ; : 1 1 8.3 4 4 4 4 4               ",
"                  & X & o ; & ; ; : : 3 4 : 4                   ",
"                        & o & ; ; ; ; ;                         "
};
