/* XPM */
static char *_ed2a1610f7b473ae72a75afb0cddb5a7xFJmDOJrgpBdFas[] = {
/* columns rows colors chars-per-pixel */
"16 16 124 2 ",
"   c None",
".  c #252525",
"X  c gray15",
"o  c #272727",
"O  c #262929",
"+  c #252E2D",
"@  c #272E2E",
"#  c #262F2F",
"$  c #282828",
"%  c #282929",
"&  c gray16",
"*  c #2A2A2A",
"=  c gray17",
"-  c #282D2D",
";  c #2B2E2E",
":  c #2B2F2E",
">  c #2C2C2C",
",  c #2D2D2D",
"<  c #2C2E2E",
"1  c #2C2F2E",
"2  c gray18",
"3  c #2F2F2F",
"4  c #2D3030",
"5  c #2C3232",
"6  c #2C3332",
"7  c #2F3232",
"8  c #2F3535",
"9  c #2E3636",
"0  c #273838",
"q  c #2C3838",
"w  c #2E3B3A",
"e  c #2F3C3B",
"r  c #283D3C",
"t  c #283F3D",
"y  c #2D3F3E",
"u  c gray19",
"i  c #313131",
"p  c #303333",
"a  c #313333",
"s  c #323232",
"d  c gray20",
"f  c #303535",
"g  c #333535",
"h  c #343434",
"j  c #353535",
"k  c #353636",
"l  c #343737",
"z  c #353737",
"x  c gray21",
"c  c #373737",
"v  c #323836",
"b  c #333838",
"n  c #323B3A",
"m  c #363838",
"M  c #313E3D",
"N  c #29403F",
"B  c #244241",
"V  c #274241",
"C  c #254342",
"Z  c #254644",
"A  c #274645",
"S  c #294240",
"D  c #2C4341",
"F  c #2C4543",
"G  c #2D4645",
"H  c #2F4746",
"J  c #244847",
"K  c #224B49",
"L  c #274948",
"P  c #244D4B",
"I  c #234E4C",
"U  c #254F4D",
"Y  c #2A4948",
"T  c #294B49",
"R  c #2C4A49",
"E  c #2B4E4C",
"W  c #2C4D4C",
"Q  c #2D4F4D",
"!  c #314241",
"~  c #304645",
"^  c #304C4B",
"/  c #22514F",
"(  c #2C504E",
")  c #265552",
"_  c #2F5351",
"`  c #2B5755",
"'  c #2C5755",
"]  c #205956",
"[  c #205957",
"{  c #255A58",
"}  c #265B59",
"|  c #215D5A",
" . c #275C59",
".. c #2B5A58",
"X. c #2A5C5A",
"o. c #1D635F",
"O. c #24615E",
"+. c #2A605D",
"@. c #1D6A67",
"#. c #1D6C68",
"$. c #1D7570",
"%. c #1F7874",
"&. c #1D7E79",
"*. c #226360",
"=. c #2A6361",
"-. c #286562",
";. c #226865",
":. c #276B67",
">. c #206F6B",
",. c #277370",
"<. c #1D8984",
"1. c #1E8984",
"2. c #17A69F",
"3. c #18A69F",
"4. c #14ACA5",
"5. c #16ADA5",
"6. c #11C1B8",
"7. c #11C1B9",
"8. c #11C2B9",
"9. c #11C3BA",
"0. c #11C3BB",
"q. c #11C4BB",
"w. c #10C6BD",
"e. c #10C7BE",
/* pixels */
"          u 8 <.<.n g           ",
"      , 3 u  .w.w...! m j       ",
"    , ; ) T n 5.4.n =...m j     ",
"  & ; &., 3 3 u i d j j +.m c   ",
"  J S ; , , u u u d j d j ^ _   ",
"@.w.9.r , , , u u d d j H q.w.,.",
"[ w.q.N , , T 7 d Q d d ~ w.w.=.",
"o I Z & , L q }  .e W d j ( ' j ",
"o V & & & Z S } } F R d d j :.j ",
"o K & & , , N , , D u d d j ` g ",
". # / & & > , , , u u d u _ n u ",
"  O ] ; 0 & & , , u , N g H u   ",
"  o O 4.w.| & , , , O.e.5.7 u   ",
"    @ 9.w.$.& , : 5 %.e.9.8     ",
"      o.#.@ V P / *.6 >.;.      ",
"          o & & & > ,           "
};
